<svg width="43" height="47" xmlns="http://www.w3.org/2000/svg" xmlns:xlink="http://www.w3.org/1999/xlink" xmlns:svgjs="http://svgjs.com/svgjs" viewBox="854 1124 43 47"><svg width="36" height="36" xmlns="http://www.w3.org/2000/svg" xmlns:xlink="http://www.w3.org/1999/xlink" xmlns:svgjs="http://svgjs.com/svgjs" fill="none" stroke-miterlimit="100" stroke="#267df4" stroke-width="3" x="856" y="1134"><svg xmlns="http://www.w3.org/2000/svg" xmlns:xlink="http://www.w3.org/1999/xlink" width="36" height="36" viewBox="2 2 35 35"><path paint-order="stroke fill markers" d="M19.5 2C29.165 2 37 9.835 37 19.5S29.165 37 19.5 37 2 29.165 2 19.5 9.835 2 19.5 2z"/></svg></svg><svg width="21" height="18" xmlns="http://www.w3.org/2000/svg" xmlns:xlink="http://www.w3.org/1999/xlink" xmlns:svgjs="http://svgjs.com/svgjs" viewBox="0 0.459 21 17.082" fill="none" stroke-miterlimit="100" stroke="#267df4" stroke-width="3" x="854" y="1124"><svg xmlns="http://www.w3.org/2000/svg" xmlns:xlink="http://www.w3.org/1999/xlink" width="21" height="18" viewBox="2.99 2.988 16.015 13.027"><path paint-order="stroke fill markers" d="M4.336 16.015c-.05-.079-.105-.153-.153-.235C1.78 11.65 3.122 6.417 7.18 4.093c4.058-2.325 9.295-.862 11.698 3.269.048.081.084.165.128.248 0 0-4.387.94-7.907 2.957-3.804 2.18-6.762 5.448-6.762 5.448z"/></svg></svg><svg width="21" height="18" xmlns="http://www.w3.org/2000/svg" xmlns:xlink="http://www.w3.org/1999/xlink" xmlns:svgjs="http://svgjs.com/svgjs" viewBox="0 0.459 21 17.082" fill="none" stroke-miterlimit="100" stroke="#267df4" stroke-width="3" x="876" y="1124"><svg xmlns="http://www.w3.org/2000/svg" xmlns:xlink="http://www.w3.org/1999/xlink" width="21" height="18" viewBox="1.995 2.988 16.015 13.027"><path paint-order="stroke fill markers" d="M16.664 16.015c.05-.079.105-.153.153-.235 2.403-4.13 1.061-9.363-2.996-11.687C9.763 1.768 4.526 3.23 2.123 7.362c-.047.081-.084.165-.128.248 0 0 4.387.94 7.907 2.957 3.804 2.18 6.762 5.448 6.762 5.448z"/></svg></svg><svg width="6" height="6" xmlns="http://www.w3.org/2000/svg" xmlns:xlink="http://www.w3.org/1999/xlink" xmlns:svgjs="http://svgjs.com/svgjs" viewBox="0.018 0 5.963 6" fill="none" stroke-miterlimit="100" stroke="#267df4" stroke-width="3" x="862" y="1165"><svg xmlns="http://www.w3.org/2000/svg" xmlns:xlink="http://www.w3.org/1999/xlink" width="6" height="6" viewBox="2.002 2.002 4.966 4.997"><path paint-order="stroke fill markers" d="M6.542 2.43a1.47 1.47 0 0 1 0 2.07L4.485 6.57a1.448 1.448 0 0 1-2.057 0 1.47 1.47 0 0 1 0-2.07l2.057-2.07a1.449 1.449 0 0 1 2.057 0z"/></svg></svg><svg width="6" height="6" xmlns="http://www.w3.org/2000/svg" xmlns:xlink="http://www.w3.org/1999/xlink" xmlns:svgjs="http://svgjs.com/svgjs" fill="none" stroke-miterlimit="100" stroke="#267df4" stroke-width="3" x="882" y="1165"><svg xmlns="http://www.w3.org/2000/svg" xmlns:xlink="http://www.w3.org/1999/xlink" width="6" height="6" viewBox="2.032 2.002 4.966 4.966"><path paint-order="stroke fill markers" d="M2.458 2.427a1.455 1.455 0 0 0 0 2.057l2.057 2.058a1.454 1.454 0 1 0 2.057-2.058L4.515 2.427a1.455 1.455 0 0 0-2.057 0z"/></svg></svg><svg width="12" height="9" xmlns="http://www.w3.org/2000/svg" xmlns:xlink="http://www.w3.org/1999/xlink" xmlns:svgjs="http://svgjs.com/svgjs" viewBox="0 0.134 12 8.731" fill="none" stroke-miterlimit="100" stroke="#267df4" stroke-width="3" x="873" y="1145"><svg xmlns="http://www.w3.org/2000/svg" width="12" height="9" viewBox="1.009 1.996 10.984 7.992"><path paint-order="stroke fill markers" d="M2.484 1.996c.815 0 1.475.625 1.475 1.397v5.2c0 .77-.66 1.395-1.475 1.395A1.479 1.479 0 0 1 1.01 8.505V3.393c0-.772.66-1.397 1.475-1.397zm0 5.027h8.035c.814 0 1.475.664 1.475 1.482 0 .82-.66 1.483-1.475 1.483H2.484c-.814 0-1.475-.624-1.475-1.396 0-.77.66-1.569 1.475-1.569z"/></svg></svg></svg>