<svg width="43" height="53" xmlns="http://www.w3.org/2000/svg" xmlns:xlink="http://www.w3.org/1999/xlink" xmlns:svgjs="http://svgjs.com/svgjs" viewBox="254 1120 43 53"><svg width="43" height="32" xmlns="http://www.w3.org/2000/svg" xmlns:xlink="http://www.w3.org/1999/xlink" xmlns:svgjs="http://svgjs.com/svgjs" viewBox="0 0.131 43 31.738" fill="none" stroke-miterlimit="100" stroke="#267df4" stroke-width="3" x="254" y="1141"><svg xmlns="http://www.w3.org/2000/svg" xmlns:xlink="http://www.w3.org/1999/xlink" width="43" height="32" viewBox="1 2 42 31"><path paint-order="stroke fill markers" d="M5 2h34a4 4 0 0 1 4 4v23a4 4 0 0 1-4 4H5a4 4 0 0 1-4-4V6a4 4 0 0 1 4-4z"/></svg></svg><svg width="33" height="24" xmlns="http://www.w3.org/2000/svg" xmlns:xlink="http://www.w3.org/1999/xlink" xmlns:svgjs="http://svgjs.com/svgjs" viewBox="0 0.141 33 23.719" fill="none" stroke-miterlimit="100" stroke="#267df4" stroke-width="3" x="259" y="1120"><svg xmlns="http://www.w3.org/2000/svg" xmlns:xlink="http://www.w3.org/1999/xlink" width="33" height="24" viewBox="1 2 32 23"><path paint-order="stroke fill markers" d="M16 2h2c8.284 0 15 6.715 15 15v8H1v-8C1 8.715 7.716 2 16 2z"/></svg></svg><svg width="23" height="19" xmlns="http://www.w3.org/2000/svg" xmlns:xlink="http://www.w3.org/1999/xlink" xmlns:svgjs="http://svgjs.com/svgjs" viewBox="0 0.091 23 18.819" fill="none" stroke-miterlimit="100" stroke="#267df4" stroke-width="3" x="264" y="1126"><svg xmlns="http://www.w3.org/2000/svg" xmlns:xlink="http://www.w3.org/1999/xlink" width="23" height="19" viewBox="1 2 22 18"><path paint-order="stroke fill markers" d="M12 2c6.075 0 11 4.925 11 11v7H1v-7C1 6.925 5.925 2 12 2z"/></svg></svg><svg width="17" height="12" xmlns="http://www.w3.org/2000/svg" xmlns:xlink="http://www.w3.org/1999/xlink" xmlns:svgjs="http://svgjs.com/svgjs" viewBox="0 0.175 17 11.649" fill="none" stroke-miterlimit="100" stroke="#267df4" stroke-width="3" x="267" y="1150"><svg xmlns="http://www.w3.org/2000/svg" width="17" height="12" viewBox="2.136 2.086 15.728 10.778"><path paint-order="stroke fill markers" d="M2.575 5.354a1.5 1.5 0 0 1 2.122 0l4.95 4.95a1.5 1.5 0 0 1-2.122 2.12l-4.95-4.949a1.5 1.5 0 0 1 0-2.121zm4.95 4.95l7.778-7.779a1.5 1.5 0 0 1 2.122 2.121l-7.779 7.778a1.5 1.5 0 0 1-2.12-2.12z"/></svg></svg></svg>